<mxfile host="Electron" agent="Mozilla/5.0 (Windows NT 10.0; Win64; x64) AppleWebKit/537.36 (KHTML, like Gecko) draw.io/26.0.7 Chrome/128.0.6613.186 Electron/32.2.5 Safari/537.36" version="26.0.7">
  <diagram name="Page-1" id="dSJVC5dy6JzzmdOYXkZ5">
    <mxGraphModel dx="1434" dy="836" grid="0" gridSize="10" guides="0" tooltips="1" connect="1" arrows="1" fold="1" page="0" pageScale="1" pageWidth="1100" pageHeight="850" background="none" math="0" shadow="0">
      <root>
        <mxCell id="0" />
        <mxCell id="1" parent="0" />
        <mxCell id="BPSROcMBVSw7BY3SY0sB-13" value="" style="rounded=1;whiteSpace=wrap;html=1;dashed=1;dashPattern=8 8;fillColor=#d5e8d4;strokeColor=#82b366;sketch=1;curveFitting=1;jiggle=2;" vertex="1" parent="1">
          <mxGeometry x="530" y="90" width="250" height="510" as="geometry" />
        </mxCell>
        <mxCell id="BPSROcMBVSw7BY3SY0sB-14" style="rounded=0;orthogonalLoop=1;jettySize=auto;html=1;exitX=1;exitY=0.5;exitDx=0;exitDy=0;startArrow=classic;startFill=1;endArrow=classic;endFill=1;flowAnimation=1;shadow=1;" edge="1" parent="1" source="BPSROcMBVSw7BY3SY0sB-5">
          <mxGeometry relative="1" as="geometry">
            <mxPoint x="330" y="345" as="targetPoint" />
          </mxGeometry>
        </mxCell>
        <mxCell id="BPSROcMBVSw7BY3SY0sB-5" value="" style="rounded=1;whiteSpace=wrap;html=1;dashed=1;fillColor=#dae8fc;strokeColor=#6c8ebf;glass=0;shadow=0;sketch=1;curveFitting=1;jiggle=2;" vertex="1" parent="1">
          <mxGeometry x="40" y="160" width="190" height="370" as="geometry" />
        </mxCell>
        <mxCell id="BPSROcMBVSw7BY3SY0sB-1" value="Customer App" style="rounded=1;whiteSpace=wrap;html=1;" vertex="1" parent="1">
          <mxGeometry x="75" y="230" width="120" height="60" as="geometry" />
        </mxCell>
        <mxCell id="BPSROcMBVSw7BY3SY0sB-2" value="laundry App" style="rounded=1;whiteSpace=wrap;html=1;" vertex="1" parent="1">
          <mxGeometry x="75" y="310" width="120" height="60" as="geometry" />
        </mxCell>
        <mxCell id="BPSROcMBVSw7BY3SY0sB-3" value="Driver App" style="rounded=1;whiteSpace=wrap;html=1;" vertex="1" parent="1">
          <mxGeometry x="75" y="400" width="120" height="60" as="geometry" />
        </mxCell>
        <mxCell id="BPSROcMBVSw7BY3SY0sB-4" value="Authentication Service" style="rounded=1;whiteSpace=wrap;html=1;" vertex="1" parent="1">
          <mxGeometry x="560" y="150" width="170" height="60" as="geometry" />
        </mxCell>
        <mxCell id="BPSROcMBVSw7BY3SY0sB-6" value="Order Management Service" style="rounded=1;whiteSpace=wrap;html=1;" vertex="1" parent="1">
          <mxGeometry x="560" y="240" width="170" height="60" as="geometry" />
        </mxCell>
        <mxCell id="BPSROcMBVSw7BY3SY0sB-7" value="Notification Service" style="rounded=1;whiteSpace=wrap;html=1;" vertex="1" parent="1">
          <mxGeometry x="560" y="330" width="170" height="60" as="geometry" />
        </mxCell>
        <mxCell id="BPSROcMBVSw7BY3SY0sB-9" value="Payment Gateway Integration" style="rounded=1;whiteSpace=wrap;html=1;" vertex="1" parent="1">
          <mxGeometry x="560" y="420" width="170" height="60" as="geometry" />
        </mxCell>
        <mxCell id="BPSROcMBVSw7BY3SY0sB-10" value="Real-time Tracking Service" style="rounded=1;whiteSpace=wrap;html=1;" vertex="1" parent="1">
          <mxGeometry x="560" y="510" width="170" height="60" as="geometry" />
        </mxCell>
        <mxCell id="BPSROcMBVSw7BY3SY0sB-15" style="rounded=0;orthogonalLoop=1;jettySize=auto;html=1;startArrow=classic;startFill=1;flowAnimation=1;shadow=1;" edge="1" parent="1" source="BPSROcMBVSw7BY3SY0sB-11">
          <mxGeometry relative="1" as="geometry">
            <mxPoint x="520" y="340" as="targetPoint" />
            <Array as="points">
              <mxPoint x="480" y="340" />
            </Array>
          </mxGeometry>
        </mxCell>
        <mxCell id="BPSROcMBVSw7BY3SY0sB-11" value="Gateway" style="rounded=1;whiteSpace=wrap;html=1;" vertex="1" parent="1">
          <mxGeometry x="340" y="310" width="110" height="60" as="geometry" />
        </mxCell>
      </root>
    </mxGraphModel>
  </diagram>
</mxfile>
